<svg xmlns="http://www.w3.org/2000/svg" xmlns:xlink="http://www.w3.org/1999/xlink" width="512" height="512" x="0" y="0" viewBox="0 0 512 512" style="enable-background:new 0 0 512 512" xml:space="preserve" class=""><g transform="matrix(1.05,0,0,1.05,-12.800083923339855,-12.799898147582951)"><path d="m449.2 308.17-27.03-11.29c-9.67-4.04-20.91-.24-26.15 8.83l-2.11 3.65a11.885 11.885 0 0 0-1.19 9.07c.83 3.09 2.81 5.67 5.57 7.26l29.33 16.94c2.3 1.33 4.85 2 7.43 2 1.3 0 2.61-.17 3.9-.52 3.86-1.03 7.08-3.5 9.07-6.95l6.92-11.98c1.74-3.02 2.09-6.5.97-9.81-1.1-3.3-3.49-5.86-6.71-7.2zm-11.56 22.99c-.52.91-1.34 1.24-1.79 1.36-.44.12-1.32.24-2.23-.29l-29.32-16.88 2.11-3.65c1.65-2.85 4.57-4.47 7.65-4.47 1.16 0 2.34.23 3.48.71l26.99 11.27zm-127.56-99-23.29-17.77c-2.77-2.11-6.18-2.9-9.6-2.22-3.42.69-6.26 2.73-8 5.75l-6.92 11.98c-1.99 3.45-2.52 7.47-1.49 11.33s3.5 7.08 6.95 9.07l29.34 16.94c1.88 1.08 3.93 1.6 5.96 1.6 4.14 0 8.16-2.14 10.38-5.98l2.11-3.65c5.23-9.06 2.89-20.69-5.44-27.05zm-4.97 21.06-2.05 3.63-29.34-16.94a2.897 2.897 0 0 1-1.36-1.79c-.12-.44-.24-1.32.29-2.23l6.9-11.94 23.25 17.73c3.61 2.77 4.58 7.62 2.31 11.54zm185.91 25-14.79-8.54c-3.75-2.16-7.99-2.8-11.99-2.1l1.51-20c1.06-14.05-5.59-26.64-17.79-33.69l-78.9-45.56c-12.2-7.04-26.43-6.51-38.07 1.43l-16.56 11.3c-1.4-3.81-4.07-7.17-7.82-9.34l-14.79-8.54c-2.76-1.59-5.98-2.02-9.07-1.19s-5.67 2.81-7.26 5.57l-2.65 4.59c-2.85 4.93-1.76 11.06 2.26 14.77-11.35 2.39-21.39 9.21-27.48 19.75l-31.56 54.66a5.987 5.987 0 0 0 2.2 8.19l1.21.7-3.82 6.62c-5.41 9.38-2.19 21.41 7.19 26.83l6.84 3.95c3.08 1.78 6.46 2.63 9.79 2.63 6.79 0 13.41-3.52 17.04-9.82l3.82-6.62 133.32 76.98-3.82 6.62c-5.41 9.38-2.19 21.41 7.19 26.83l6.84 3.95a19.45 19.45 0 0 0 9.76 2.63c1.71 0 3.44-.23 5.14-.68 5.08-1.36 9.31-4.6 11.93-9.13l3.82-6.62 1.21.7c.94.54 1.98.8 2.99.8 2.07 0 4.09-1.08 5.2-3l31.56-54.66c6.11-10.58 7.03-22.66 3.46-33.66 1.14.34 2.3.53 3.45.53 4.14 0 8.16-2.14 10.38-5.98l2.65-4.59c3.29-5.68 1.32-13.01-4.39-16.31zm-153.28-98.53c7.74-5.28 17.2-5.64 25.31-.95l78.9 45.56c8.11 4.68 12.53 13.05 11.83 22.39l-2.11 28c-45.98-30.17-92.01-56.77-137.07-79.21zm-51.93-6.09 14.79 8.54c2.29 1.32 3.37 3.98 2.8 6.46l-.94.64-19.24-11.07zM246.1 294.46c-2.11 3.65-6.79 4.9-10.44 2.8l-6.84-3.95c-3.65-2.11-4.9-6.79-2.8-10.44l3.82-6.62 20.07 11.59zm174.19 100.56c-1.01 1.75-2.66 3.01-4.64 3.54s-4.04.27-5.79-.75l-6.84-3.95c-3.65-2.11-4.9-6.79-2.8-10.44l3.82-6.62 20.07 11.59zm44.78-62.77-28.56 49.46-207.07-119.55L258 212.7c8.09-14.01 26.19-18.73 42.1-10.98 50.3 24.48 101.94 54.29 153.46 88.6 14.71 9.79 19.66 27.82 11.51 41.93zm17.35-39.12-19.26-11.12.09-1.13c1.86-1.74 4.71-2.13 7-.8l14.77 8.48zm-274.55 35.7h-.47v-32.45c0-13.77-11.2-24.97-24.97-24.97h-68.75l-68.11-72.1c-4.88-5.16-11.2-7.89-18.3-7.89H21c-3.31 0-6 2.69-6 6v171.54c0 3.31 2.69 6 6 6h70.11c2.9 0 5.39-2.08 5.91-4.94 3.17-17.67 18.52-30.49 36.51-30.49 17.98 0 33.33 12.82 36.5 30.49.51 2.86 3 4.94 5.91 4.94h31.94c12.72 0 23.07-10.35 23.07-23.07s-10.36-23.06-23.08-23.06zM27 229.09l33.75 35.73H27zm180.87 133.88h-27.19c-5.99-20.8-25.08-35.43-47.17-35.43s-41.18 14.62-47.17 35.43H27v-86.15h47.67a6 6 0 0 0 4.36-10.12l-49.19-52.07c-.89-.94-1.84-1.76-2.85-2.49v-8.71h.27c3.82 0 6.96 1.35 9.58 4.13l69.89 73.98a5.991 5.991 0 0 0 4.36 1.88h71.34c7.15 0 12.97 5.82 12.97 12.97v38.45c0 3.31 2.69 6 6 6h6.47c6.1 0 11.07 4.96 11.07 11.07s-4.96 11.06-11.07 11.06zm-74.35-20.54c-18.86 0-34.2 15.34-34.2 34.2s15.34 34.2 34.2 34.2 34.2-15.34 34.2-34.2-15.34-34.2-34.2-34.2zm0 56.4c-12.24 0-22.2-9.96-22.2-22.2s9.96-22.2 22.2-22.2 22.2 9.96 22.2 22.2-9.96 22.2-22.2 22.2zM77.86 165.38a6 6 0 0 1 1.13-7.08 6.008 6.008 0 0 1 7.11-.95l35.95 20.01 12.15-71.2a6.002 6.002 0 0 1 11.58-.98l17.57 49.89 22.27-27.19a5.99 5.99 0 0 1 6.61-1.86c2.38.83 3.99 3.05 4.03 5.56l.58 33.86L237 141.96c2.29-1.33 5.18-1.02 7.11.79s2.47 4.66 1.3 7.04l-30.16 61.46a5.993 5.993 0 0 1-8.03 2.74 6.005 6.005 0 0 1-2.74-8.03l21.39-43.59-31.83 18.61a5.977 5.977 0 0 1-5.97.05c-1.86-1.04-3.02-3-3.06-5.13l-.47-27.77-18.67 22.79a6.007 6.007 0 0 1-5.68 2.11 6.009 6.009 0 0 1-4.62-3.92l-13.43-38.13-9.68 56.76c-.33 1.92-1.57 3.56-3.32 4.4s-3.81.78-5.51-.17l-25.81-14.36 19.71 37.63c1.54 2.94.4 6.56-2.53 8.1-.89.47-1.84.69-2.78.69-2.16 0-4.25-1.17-5.32-3.22z" fill="#EAAB3B" opacity="1" data-original="#000000"></path></g></svg>