<svg xmlns="http://www.w3.org/2000/svg" xmlns:xlink="http://www.w3.org/1999/xlink" width="512" height="512" x="0" y="0" viewBox="0 0 48 48" style="enable-background:new 0 0 512 512" xml:space="preserve" fill-rule="evenodd" class=""><g transform="matrix(1.1199999999999994,0,0,1.1199999999999994,-2.880002660751334,-2.879999999999985)"><path d="M35.879 3a4 4 0 0 0-2.828 1.172l-.459.459-12.379 1.375a1.001 1.001 0 0 0-.598.287L8.293 17.615a.993.993 0 0 0-.275.524l-2 10.677a.998.998 0 1 0 1.964.368l1.944-10.373 8.982-8.983 4.244 4.242L10.93 26.293a1 1 0 1 0 1.414 1.414L34.465 5.586a1.999 1.999 0 0 1 2.828 0l2.121 2.121a2 2 0 0 1 0 2.828l-.768.768a6.001 6.001 0 0 0-7.716.646 6.005 6.005 0 0 0-.649 7.719l-8.625 8.625a1 1 0 0 0 1.414 1.414l8.625-8.625a6.005 6.005 0 0 0 7.719-.646 6.006 6.006 0 0 0 .647-7.719l.767-.768a3.998 3.998 0 0 0 1.17-2.828 3.993 3.993 0 0 0-1.17-2.828l-2.121-2.121A3.995 3.995 0 0 0 35.879 3zm-5.551 3.895-5.762 5.761-4.244-4.242.459-.459zm4.844 5.298c1.024 0 2.047.39 2.828 1.17a4 4 0 1 1-5.656 5.658l-.002-.001a4.003 4.003 0 0 1 .002-5.657 3.987 3.987 0 0 1 2.828-1.17zM22.443 20.85a.993.993 0 0 0-.707.293l-2.121 2.121a1 1 0 0 0 1.414 1.414l2.121-2.121a.999.999 0 0 0-.707-1.707zM3.965 31a1 1 0 0 0-.494 1.848C5.148 33.895 7.022 35 9 35c1.08 0 2.065-.55 3.029-1.152C12.668 33.45 13.285 33 14 33s1.332.45 1.971.848C16.935 34.45 17.92 35 19 35s2.065-.55 3.029-1.152C22.668 33.45 23.285 33 24 33s1.332.45 1.971.848C26.935 34.45 27.92 35 29 35s2.065-.55 3.029-1.152C32.668 33.45 33.285 33 34 33s1.332.45 1.971.848C36.935 34.45 37.92 35 39 35c1.978 0 3.852-1.105 5.529-2.152a.998.998 0 0 0 .319-1.377.998.998 0 0 0-1.377-.319C42.103 32.005 40.613 33 39 33c-.715 0-1.332-.45-1.971-.848C36.065 31.55 35.08 31 34 31s-2.065.55-3.029 1.152C30.332 32.55 29.715 33 29 33s-1.332-.45-1.971-.848C26.065 31.55 25.08 31 24 31s-2.065.55-3.029 1.152C20.332 32.55 19.715 33 19 33s-1.332-.45-1.971-.848C16.065 31.55 15.08 31 14 31s-2.065.55-3.029 1.152C10.332 32.55 9.715 33 9 33c-1.613 0-3.103-.995-4.471-1.848A.99.99 0 0 0 3.965 31zm0 5a1 1 0 0 0-.494 1.848C5.148 38.895 7.022 40 9 40c1.08 0 2.065-.55 3.029-1.152C12.668 38.45 13.285 38 14 38s1.332.45 1.971.848C16.935 39.45 17.92 40 19 40s2.065-.55 3.029-1.152C22.668 38.45 23.285 38 24 38s1.332.45 1.971.848C26.935 39.45 27.92 40 29 40s2.065-.55 3.029-1.152C32.668 38.45 33.285 38 34 38s1.332.45 1.971.848C36.935 39.45 37.92 40 39 40c1.978 0 3.852-1.105 5.529-2.152a.998.998 0 0 0 .319-1.377.998.998 0 0 0-1.377-.319C42.103 37.005 40.613 38 39 38c-.715 0-1.332-.45-1.971-.848C36.065 36.55 35.08 36 34 36s-2.065.55-3.029 1.152C30.332 37.55 29.715 38 29 38s-1.332-.45-1.971-.848C26.065 36.55 25.08 36 24 36s-2.065.55-3.029 1.152C20.332 37.55 19.715 38 19 38s-1.332-.45-1.971-.848C16.065 36.55 15.08 36 14 36s-2.065.55-3.029 1.152C10.332 37.55 9.715 38 9 38c-1.613 0-3.103-.995-4.471-1.848A.99.99 0 0 0 3.965 36zm0 5a1 1 0 0 0-.494 1.848C5.148 43.895 7.022 45 9 45c1.08 0 2.065-.55 3.029-1.152C12.668 43.45 13.285 43 14 43s1.332.45 1.971.848C16.935 44.45 17.92 45 19 45s2.065-.55 3.029-1.152C22.668 43.45 23.285 43 24 43s1.332.45 1.971.848C26.935 44.45 27.92 45 29 45s2.065-.55 3.029-1.152C32.668 43.45 33.285 43 34 43s1.332.45 1.971.848C36.935 44.45 37.92 45 39 45c1.978 0 3.852-1.105 5.529-2.152a.998.998 0 0 0 .319-1.377.998.998 0 0 0-1.377-.319C42.103 42.005 40.613 43 39 43c-.715 0-1.332-.45-1.971-.848C36.065 41.55 35.08 41 34 41s-2.065.55-3.029 1.152C30.332 42.55 29.715 43 29 43s-1.332-.45-1.971-.848C26.065 41.55 25.08 41 24 41s-2.065.55-3.029 1.152C20.332 42.55 19.715 43 19 43s-1.332-.45-1.971-.848C16.065 41.55 15.08 41 14 41s-2.065.55-3.029 1.152C10.332 42.55 9.715 43 9 43c-1.613 0-3.103-.995-4.471-1.848A.99.99 0 0 0 3.965 41z" fill="#EAAB3B" opacity="1" data-original="#000000" class=""></path></g></svg>