<svg xmlns="http://www.w3.org/2000/svg" xmlns:xlink="http://www.w3.org/1999/xlink" width="512" height="512" x="0" y="0" viewBox="0 0 1.707 1.707" style="enable-background:new 0 0 512 512" xml:space="preserve" fill-rule="evenodd" class=""><g><path d="M.285 1.158a.02.02 0 0 1-.02-.02V.882a.02.02 0 0 1 .02-.02.213.213 0 0 0 0-.426.02.02 0 0 1-.02-.02V.068a.02.02 0 0 1 .02-.02h1.238a.02.02 0 0 1 .02.02v.308a.02.02 0 0 1-.04 0V.088H.305v.309a.253.253 0 0 1 0 .504v.237a.02.02 0 0 1-.02.02zm1.238-.142a.02.02 0 0 1-.02-.02V.704a.02.02 0 0 1 .04 0v.292a.02.02 0 0 1-.02.02z" fill="#EAAB3B" opacity="1" data-original="#000000" class=""></path><path d="M1.286.479H.76a.02.02 0 0 1 0-.04h.525a.02.02 0 0 1 0 .04zm-.613 0H.516a.02.02 0 0 1 0-.04h.157a.02.02 0 0 1 0 .04zM1.286.603h-.199a.02.02 0 0 1 0-.04h.199a.02.02 0 0 1 0 .04zm-.29 0H.57a.02.02 0 0 1 0-.04h.426a.02.02 0 0 1 0 .04zM1.026.728H.59a.02.02 0 0 1 0-.04h.437a.02.02 0 0 1 0 .04zM1.026.852H.868a.02.02 0 0 1 0-.04h.158a.02.02 0 0 1 0 .04zm-.266 0H.554a.02.02 0 0 1 0-.04H.76a.02.02 0 0 1 0 .04zM1.396.876h-.268a.02.02 0 0 1-.02-.02V.684a.02.02 0 0 1 .04 0v.152h.248a.02.02 0 0 1 0 .04z" fill="#EAAB3B" opacity="1" data-original="#000000" class=""></path><path d="M1.128.819a.02.02 0 0 1-.013-.035l.09-.076a.02.02 0 0 1 .028 0l.065.064.075-.058a.02.02 0 0 1 .024.032l-.089.069a.02.02 0 0 1-.026-.002L1.218.75 1.14.814a.02.02 0 0 1-.013.005zM.285.902a.253.253 0 1 1 0-.507.253.253 0 0 1 0 .507zm0-.466a.213.213 0 1 0 0 .426.213.213 0 0 0 0-.426zM1.142 1.524l-.596-.002a.02.02 0 0 1-.02-.023.142.142 0 1 0-.28 0 .02.02 0 0 1-.019.02H.225c-.079-.007-.18-.024-.213-.066a.052.052 0 0 1-.011-.039v-.1a.127.127 0 0 1 .03-.094c.068-.082.227-.118.472-.106l.2-.155a.581.581 0 0 1 .21-.034 1.1 1.1 0 0 1 .537.155h.133c.07.01.12.182.113.288-.005.1-.052.117-.08.118a.612.612 0 0 0-.149.03.02.02 0 0 1-.026-.022.142.142 0 0 0-.14-.158.142.142 0 0 0-.14.164.02.02 0 0 1-.02.024zm-.574-.042.552.001v-.005a.182.182 0 0 1 .362-.008.582.582 0 0 1 .133-.024c.032-.001.04-.05.042-.08.005-.105-.043-.239-.079-.246h-.133a.02.02 0 0 1-.01-.002 1.063 1.063 0 0 0-.52-.153.573.573 0 0 0-.19.028l-.204.158a.02.02 0 0 1-.013.004 1.772 1.772 0 0 0-.096-.003c-.226 0-.315.05-.35.093C.036 1.28.04 1.31.04 1.31a.02.02 0 0 1 0 .004v.102a.02.02 0 0 1 0 .003c0 .003 0 .006.004.01.016.021.077.04.162.05a.182.182 0 1 1 .362.004z" fill="#EAAB3B" opacity="1" data-original="#000000" class=""></path><path d="M.115 1.343H.02a.02.02 0 0 1-.02-.02v-.008a.123.123 0 0 1 .02-.082.02.02 0 0 1 .018-.009h.097c.019 0 .075.001.077.039.002.04-.075.077-.096.08H.115zm-.075-.04h.073a.157.157 0 0 0 .057-.035.136.136 0 0 0-.034-.003H.05a.084.084 0 0 0-.01.038zM1.675 1.4H1.557a.02.02 0 0 1 0-.04h.117a.02.02 0 0 1 .02.025.02.02 0 0 1-.019.015zM1.668 1.284h-.077a.02.02 0 0 1-.017-.01l-.056-.09a.02.02 0 0 1 .01-.03l.092-.03a.02.02 0 0 1 .024.009.425.425 0 0 1 .044.131.02.02 0 0 1-.02.02zm-.066-.04h.041a.394.394 0 0 0-.026-.077l-.052.018zM.155 1.422H.021a.02.02 0 0 1 0-.04h.134a.02.02 0 0 1 0 .04zM.51 1.155a.02.02 0 0 1-.002-.04l.936-.035a.02.02 0 0 1 .001.04l-.935.035zM1.033 1.252H.951a.02.02 0 0 1 0-.04h.082a.02.02 0 0 1 0 .04zM1.3 1.659a.182.182 0 1 1 .001-.363.182.182 0 0 1 0 .363zm0-.323a.142.142 0 1 0 .001.283.142.142 0 0 0 0-.283zM.387 1.659a.182.182 0 1 1 0-.363.182.182 0 0 1 0 .363zm0-.323a.142.142 0 1 0 0 .283.142.142 0 0 0 0-.283z" fill="#EAAB3B" opacity="1" data-original="#000000" class=""></path><path d="M1.58 1.12a.02.02 0 0 1-.02-.02v-.083l.001-.012a.42.42 0 0 1-.04.012c-.062.017-.155.044-.227.03a.02.02 0 1 1 .007-.039.525.525 0 0 0 .23-.036l.027-.008c.013-.004.024-.008.035 0 .01.008.01.02.009.033l-.001.02L1.6 1.1a.02.02 0 0 1-.02.02zM.194.76A.02.02 0 0 1 .18.726L.362.544A.02.02 0 1 1 .39.572L.208.754A.02.02 0 0 1 .194.76zM.36.791a.068.068 0 1 1 0-.135.068.068 0 0 1 0 .135zm0-.095a.028.028 0 1 0 0 .055.028.028 0 0 0 0-.055zM.21.642a.068.068 0 1 1 0-.136.068.068 0 0 1 0 .136zm0-.095a.028.028 0 1 0 0 .055.028.028 0 0 0 0-.055zM.387 1.559a.081.081 0 1 1 0-.163.081.081 0 0 1 0 .163zm0-.123a.041.041 0 1 0 0 .083.041.041 0 0 0 0-.083zM1.3 1.559a.081.081 0 1 1 .001-.163.081.081 0 0 1 0 .163zm0-.123a.041.041 0 1 0 0 .083.041.041 0 0 0 0-.083zM1.567 1.659H.13a.02.02 0 0 1 0-.04h1.437a.02.02 0 0 1 0 .04zM1.523.636a.058.058 0 0 1-.058-.058.02.02 0 0 1 .04 0 .018.018 0 0 0 .036 0c0-.012-.002-.013-.023-.018C1.5.555 1.465.547 1.465.502a.058.058 0 0 1 .116 0 .02.02 0 0 1-.04 0 .018.018 0 0 0-.036 0c0 .012.002.014.022.019.02.004.054.012.054.057a.058.058 0 0 1-.058.058z" fill="#EAAB3B" opacity="1" data-original="#000000" class=""></path><path d="M1.523.484a.02.02 0 0 1-.02-.02v-.02a.02.02 0 0 1 .04 0v.02a.02.02 0 0 1-.02.02zM1.523.656a.02.02 0 0 1-.02-.02v-.02a.02.02 0 0 1 .04 0v.02a.02.02 0 0 1-.02.02z" fill="#EAAB3B" opacity="1" data-original="#000000" class=""></path><path d="M1.523.724a.184.184 0 1 1 0-.368.184.184 0 0 1 0 .368zm0-.328a.144.144 0 1 0 0 .288.144.144 0 0 0 0-.288zM.866 1.523a.02.02 0 0 1-.02-.02v-.381a.02.02 0 0 1 .04 0v.38a.02.02 0 0 1-.02.02zM.771 1.523a.02.02 0 0 1-.02-.02v-.378a.02.02 0 0 1 .04 0v.378a.02.02 0 0 1-.02.02zM.687 1.252H.604a.02.02 0 0 1 0-.04h.083a.02.02 0 0 1 0 .04zM.908.373A.02.02 0 0 1 .889.346l.064-.18A.02.02 0 0 1 .97.155.02.02 0 0 1 .99.166l.078.18A.02.02 0 0 1 1.03.36L.973.228.926.36a.02.02 0 0 1-.018.013z" fill="#EAAB3B" opacity="1" data-original="#000000" class=""></path><path d="M1.03.328H.924a.02.02 0 0 1 0-.04h.106a.02.02 0 0 1 0 .04zM1.245.373a.02.02 0 0 1-.02-.02v-.18a.02.02 0 0 1 .04 0v.18a.02.02 0 0 1-.02.02zm-.106 0a.02.02 0 0 1-.02-.02v-.18a.02.02 0 0 1 .04 0v.18a.02.02 0 0 1-.02.02z" fill="#EAAB3B" opacity="1" data-original="#000000" class=""></path><path d="M1.245.373a.02.02 0 0 1-.017-.01l-.107-.18a.02.02 0 0 1 .035-.02l.106.18a.02.02 0 0 1-.017.03zM.68.373H.555a.02.02 0 0 1-.02-.02v-.18a.02.02 0 0 1 .04 0v.16H.68a.02.02 0 0 1 0 .04zM.794.373A.082.082 0 0 1 .712.291V.235a.082.082 0 0 1 .163 0v.056a.082.082 0 0 1-.081.082zm0-.18a.042.042 0 0 0-.042.042v.056c0 .023.019.042.042.042A.042.042 0 0 0 .835.291V.235A.042.042 0 0 0 .794.194z" fill="#EAAB3B" opacity="1" data-original="#000000" class=""></path></g></svg>