<svg xmlns="http://www.w3.org/2000/svg" xmlns:xlink="http://www.w3.org/1999/xlink" width="512" height="512" x="0" y="0" viewBox="0 0 512 512" style="enable-background:new 0 0 512 512" xml:space="preserve" class=""><g transform="matrix(1.18,0,0,1.18,-46.08900054931644,-46.07100494384764)"><path d="M442.2 423.8h-12.4c-2.7 0-4.9-2.2-4.9-4.9 0-2.8 2.2-4.9 4.9-4.9h12.4c10.5 0 18.9-8.5 18.9-18.9v-60.2c0-6.7-4.5-12.5-11-14.2l-55.6-14.5c-13.8-3.6-26.4-10.8-36.6-20.9L304 232.5c-4.6-4.6-10.9-7.2-17.6-7.2h-204l6.3 22c.4 1.3.2 2.7-.5 3.8l-32.6 54.5c-3.2 5.4-4.8 11.5-4.8 17.7v71.8c0 10.5 8.5 18.9 18.9 18.9h12.4c2.7 0 4.9 2.2 4.9 4.9s-2.2 4.9-4.9 4.9H69.7C53.8 423.9 41 411 41 395.2v-71.9c0-7.8 2.2-15.7 6.2-22.6l31.6-52.6-6.1-21.3c-.8-2.7-.2-5.4 1.5-7.7 1.7-2.2 4.2-3.5 7-3.5h205.3c9.2 0 18.1 3.6 24.5 10.1l53.9 52.7c9 9 20 15.3 32.2 18.3l55.7 14.5c10.8 2.9 18.3 12.5 18.3 23.7v60.2c-.2 15.9-13.1 28.7-28.9 28.7z" fill="#EAAB3B" opacity="1" data-original="#000000" class=""></path><path d="M341.3 423.8H170.6c-2.7 0-4.9-2.2-4.9-4.9 0-2.8 2.2-4.9 4.9-4.9h170.6c2.7 0 4.9 2.2 4.9 4.9s-2.2 4.9-4.8 4.9zM202.2 312.5h-128c-1.8 0-3.5-1-4.2-2.6-.9-1.6-.8-3.5.2-4.9l43.2-67.2c.9-1.4 2.5-2.3 4.1-2.3h69.2c2.3 0 4.2 1.6 4.7 3.7l15.6 67.2c.3 1.5 0 3-.9 4.1-1 1.4-2.4 2-3.9 2zm-119.1-9.7h113l-13.3-57.4H120zM353.9 312.5H224.7c-2.3 0-4.2-1.6-4.7-3.7l-15.6-67.2c-.3-1.5 0-3 .9-4.1.9-1.2 2.4-1.9 3.8-1.9h77.6c1.3 0 2.6.5 3.5 1.5l67.2 67.2c1.4 1.4 1.8 3.5 1.1 5.3-.8 1.7-2.6 2.9-4.6 2.9zm-125.4-9.7H342l-57.4-57.4h-69.4zM52.5 368h-6.6c-2.7 0-4.9-2.2-4.9-4.9s2.2-4.9 4.9-4.9h6.6c8.7 0 15.9-6.7 16.7-15.2H45.9c-2.7 0-4.9-2.2-4.9-4.9s2.2-4.9 4.9-4.9h25c4.5 0 8.2 3.6 8.2 8.2 0 14.7-12 26.6-26.6 26.6zM466 368h-18.6c-14.4 0-26.1-11.7-26.1-26.1 0-4.7 3.8-8.5 8.5-8.5H466c2.7 0 4.9 2.2 4.9 4.9s-2.2 4.9-4.9 4.9h-35c.7 8.5 7.7 15.2 16.4 15.2H466c2.7 0 4.9 2.2 4.9 4.9 0 2.5-2.2 4.7-4.9 4.7z" fill="#EAAB3B" opacity="1" data-original="#000000" class=""></path><path d="M126.4 468.1c-27.1 0-49.1-22-49.1-49.1s22-49.1 49.1-49.1 49.1 22 49.1 49.1-21.9 49.1-49.1 49.1zm0-88.5c-21.7 0-39.4 17.7-39.4 39.4s17.7 39.4 39.4 39.4 39.4-17.7 39.4-39.4-17.7-39.4-39.4-39.4z" fill="#EAAB3B" opacity="1" data-original="#000000" class=""></path><path d="M126.4 442.7c-13.1 0-23.8-10.7-23.8-23.8s10.7-23.8 23.8-23.8 23.8 10.7 23.8 23.8-10.7 23.8-23.8 23.8zm0-37.7c-7.7 0-14 6.3-14 14s6.3 14 14 14 14-6.3 14-14-6.3-14-14-14zM385.5 468c-27.1 0-49.1-22-49.1-49.1s22-49.1 49.1-49.1 49.1 22 49.1 49.1-22 49.1-49.1 49.1zm0-88.5c-21.7 0-39.4 17.7-39.4 39.4s17.7 39.4 39.4 39.4 39.4-17.7 39.4-39.4c-.1-21.7-17.7-39.4-39.4-39.4z" fill="#EAAB3B" opacity="1" data-original="#000000" class=""></path><path d="M385.5 442.7c-13.1 0-23.8-10.7-23.8-23.8s10.7-23.8 23.8-23.8 23.8 10.7 23.8 23.8-10.7 23.8-23.8 23.8zm0-37.7c-7.7 0-14 6.3-14 14s6.3 14 14 14 14-6.3 14-14-6.3-14-14-14zM348.3 400H163.6c-2.7 0-4.9-2.2-4.9-4.9s2.2-4.9 4.9-4.9h184.7c2.7 0 4.9 2.2 4.9 4.9-.1 2.8-2.3 4.9-4.9 4.9zM466 400h-43.3c-2.7 0-4.9-2.2-4.9-4.9s2.2-4.9 4.9-4.9H466c2.7 0 4.9 2.2 4.9 4.9 0 2.8-2.2 4.9-4.9 4.9zM89.2 400H45.9c-2.7 0-4.9-2.2-4.9-4.9s2.2-4.9 4.9-4.9h43.3c2.7 0 4.9 2.2 4.9 4.9 0 2.8-2.2 4.9-4.9 4.9zM257.3 338.4h-15.2c-2.7 0-4.9-2.2-4.9-4.9s2.2-4.9 4.9-4.9h15.2c2.7 0 4.9 2.2 4.9 4.9s-2.2 4.9-4.9 4.9zM192.5 338.4h-15.2c-2.7 0-4.9-2.2-4.9-4.9s2.2-4.9 4.9-4.9h15.2c2.7 0 4.9 2.2 4.9 4.9.1 2.7-2.1 4.9-4.9 4.9zM354.4 280.1c-1.2 0-2.4-.4-3.4-1.3-2-1.9-2.1-4.9-.3-6.9 22.5-24.2 34.8-55.5 34.8-88.4 0-71.5-58.2-129.7-129.7-129.7S126.1 112 126.1 183.5c0 11.9 1.7 24 5 35.8.7 2.6-.8 5.3-3.4 6s-5.3-.8-6-3.4c-3.6-12.6-5.3-25.5-5.3-38.5 0-77 62.5-139.6 139.5-139.6s139.5 62.5 139.5 139.5c0 35.3-13.3 69.2-37.5 95.1-.8 1.1-2.1 1.7-3.5 1.7z" fill="#EAAB3B" opacity="1" data-original="#000000" class=""></path><path d="M335.6 261.5c-1.2 0-2.4-.4-3.4-1.3-2-1.9-2.1-4.9-.3-6.9 17.7-19 27.3-44 27.3-70 0-57-46.4-103.4-103.4-103.4s-103.4 46.4-103.4 103.4c0 12 2.1 24 6.2 35.4.9 2.6-.4 5.3-3 6.2s-5.3-.4-6.2-3c-4.5-12.5-6.8-25.6-6.8-38.8 0-62.3 50.7-113.1 113.1-113.1 62.3 0 113.1 50.7 113.1 113.1 0 28.6-10.7 55.8-29.9 76.6-.7 1.3-2.1 1.8-3.3 1.8z" fill="#EAAB3B" opacity="1" data-original="#000000" class=""></path><path d="M256 201.8c-10.2 0-18.4-8.3-18.4-18.4 0-10.2 8.3-18.4 18.4-18.4 10.2 0 18.4 8.3 18.4 18.4s-8.3 18.4-18.4 18.4zm0-27.1c-4.8 0-8.7 3.9-8.7 8.7s3.9 8.7 8.7 8.7 8.7-3.9 8.7-8.7c-.1-4.7-3.9-8.7-8.7-8.7zM256 97.9c-2.7 0-4.9-2.2-4.9-4.9V75.2c0-2.7 2.2-4.9 4.9-4.9s4.9 2.2 4.9 4.9V93c0 2.6-2.3 4.9-4.9 4.9zM221.3 104.8c-1.9 0-3.7-1.2-4.5-3.1L210 85.2c-1-2.5.2-5.3 2.7-6.4 2.5-1 5.3.2 6.4 2.7l6.8 16.5c1 2.5-.2 5.3-2.7 6.4-.6.3-1.2.4-1.9.4zM192 124.3c-1.3 0-2.5-.5-3.5-1.5L176 110.3c-1.9-1.9-1.9-5 0-6.9s5-1.9 6.9 0l12.6 12.6c1.9 1.9 1.9 5 0 6.9-.9.9-2.2 1.4-3.5 1.4zM172.4 153.7c-.6 0-1.3-.1-1.9-.4l-16.5-6.8c-2.5-1-3.6-3.8-2.7-6.4 1-2.5 3.8-3.6 6.4-2.7l16.5 6.8c2.5 1 3.6 3.8 2.7 6.4-.8 2-2.5 3.1-4.5 3.1zM165.5 188.3h-17.8c-2.7 0-4.9-2.2-4.9-4.9s2.2-4.9 4.9-4.9h17.8c2.7 0 4.9 2.2 4.9 4.9-.1 2.8-2.2 4.9-4.9 4.9zM356 229.8c-.6 0-1.3-.1-1.9-.4l-16.5-6.8c-2.5-1-3.6-3.8-2.7-6.4 1-2.5 3.8-3.6 6.4-2.7l16.5 6.8c2.5 1 3.6 3.8 2.7 6.4-.8 1.9-2.5 3.1-4.5 3.1zM364.2 188.3h-17.8c-2.7 0-4.9-2.2-4.9-4.9s2.2-4.9 4.9-4.9h17.8c2.7 0 4.9 2.2 4.9 4.9 0 2.8-2.2 4.9-4.9 4.9zM339.5 153.7c-1.9 0-3.7-1.2-4.5-3.1-1-2.5.2-5.3 2.7-6.4l16.5-6.8c2.5-1 5.3.2 6.4 2.7 1 2.5-.2 5.3-2.7 6.4l-16.5 6.8c-.7.3-1.3.4-1.9.4zM319.9 124.3c-1.3 0-2.5-.5-3.5-1.5-1.9-1.9-1.9-5 0-6.9l12.6-12.6c1.9-1.9 5-1.9 6.9 0s1.9 5 0 6.9l-12.6 12.6c-1 1-2.2 1.5-3.4 1.5zM290.6 104.8c-.6 0-1.3-.1-1.9-.4-2.5-1-3.6-3.8-2.7-6.4l6.8-16.5c1-2.5 3.8-3.6 6.4-2.7 2.5 1 3.6 3.8 2.7 6.4l-6.8 16.5c-.9 1.9-2.7 3.1-4.5 3.1z" fill="#EAAB3B" opacity="1" data-original="#000000" class=""></path><path d="M265.5 178.7c-1.3 0-2.5-.5-3.5-1.5-1.9-1.9-1.9-5 0-6.9l29.3-29.2c1.9-1.9 5-1.9 6.9 0s1.9 5 0 6.9L269 177.2c-1 1-2.2 1.5-3.5 1.5z" fill="#EAAB3B" opacity="1" data-original="#000000" class=""></path></g></svg>