<svg xmlns="http://www.w3.org/2000/svg" xmlns:xlink="http://www.w3.org/1999/xlink" width="512" height="512" x="0" y="0" viewBox="0 0 500 500" style="enable-background:new 0 0 512 512" xml:space="preserve" class=""><g transform="matrix(1.1199999999999992,0,0,1.1199999999999992,-30.000116271972388,-29.999957427978245)"><path fill-rule="evenodd" d="M361.467 409.081c0 3.647-2.98 6.601-6.616 6.601H145.149a6.587 6.587 0 0 1-6.616-6.601 6.584 6.584 0 0 1 6.616-6.606h209.702c3.636 0 6.616 2.949 6.616 6.606zm0-52.248c0 3.646-2.98 6.601-6.616 6.601H145.149a6.587 6.587 0 0 1-6.616-6.601 6.59 6.59 0 0 1 6.616-6.606h209.702c3.636-.001 6.616 2.959 6.616 6.606zm-13.233-62.153c0 1.793-1.515 3.308-3.283 3.308H155.048c-1.818 0-3.333-1.515-3.333-3.308v-16.748c0-1.788 1.515-3.303 3.333-3.303h189.903c1.768 0 3.283 1.515 3.283 3.303zm-3.282-33.259H155.048c-9.091 0-16.516 7.404-16.516 16.51v16.748c0 9.101 7.424 16.516 16.516 16.516h189.903c9.091 0 16.516-7.414 16.516-16.516v-16.748c0-9.105-7.424-16.51-16.515-16.51zm3.333-60.819h-23.283c-2.929-10.94-12.93-19.021-24.748-19.021-11.869 0-21.869 8.081-24.799 19.021h-43.991c-2.929-10.94-12.93-19.021-24.799-19.021-11.818 0-21.818 8.081-24.748 19.021h-28.889c4.339-21.072 12.601-23.91 33.283-27.086l21.263-3.308c8.182-1.101 15.152-4.343 21.263-9.899 15.101-13.717 15.101-13.717 44.546-13.647 11.4.041 23.964-.539 29.193 1.899 4.527 2.111 9.231 8.549 16.364 17.399 2.293 2.845 7.867 5.283 17.829 9.369 5.96 2.43 7.222 3.04 8.132 4.5 3.434 5.616 3.535 13.242 3.384 20.773zm-48.031 19.026c6.818 0 12.374-5.576 12.374-12.424 0-6.849-5.556-12.415-12.374-12.415-6.869 0-12.424 5.566-12.424 12.415-.001 6.848 5.555 12.424 12.424 12.424zm-93.588 0c6.869 0 12.425-5.576 12.425-12.424 0-6.849-5.556-12.415-12.425-12.415-6.818 0-12.424 5.566-12.424 12.415-.001 6.848 5.605 12.424 12.424 12.424zm135.104-56.527c-4.9-1.992-12.178-5.188-12.879-5.818l-.909-1.147c-17.374-21.844-19.192-22.682-48.587-22.672-1.869 0-3.889 0-6.01-.01-31.566-.091-35.051.394-53.385 17.071-4.192 3.803-8.586 5.828-14.192 6.586l-21.516 3.348c-10.152 1.556-21.667 3.323-30.405 10.707-11.273 9.534-12.938 22.773-15.303 34.794-.804 4.085 2.315 7.844 6.465 7.844h36.869c2.929 10.95 12.93 19.031 24.748 19.031 11.869 0 21.869-8.081 24.799-19.031h43.991c2.929 10.95 12.93 19.031 24.799 19.031 11.818 0 21.819-8.081 24.748-19.031H354.8c3.636 0 6.566-2.95 6.566-6.601 0-11.363 1.497-23.364-5.202-34.284-3.232-5.277-7.677-7.081-14.394-9.818zm63.536 273.678v-311.39c0-9.889-8.031-17.935-17.93-17.935H112.573c-9.899 0-17.93 8.046-17.93 17.935v311.39c0 9.889 8.03 17.935 17.93 17.935h274.804c9.899-.001 17.929-8.046 17.929-17.935zM323.941 45.987c9.536-2.745 19.469 2.855 22.223 12.283l10.303 35.976H156.008zm63.436 48.259h-17.172l-11.364-39.622c-4.716-16.492-22.041-26.069-38.536-21.334l-216.57 62.249c-12.879 3.823-22.273 15.753-22.273 29.849v311.39c0 17.172 13.94 31.142 31.112 31.142h274.804c17.172 0 31.162-13.97 31.162-31.142v-311.39c-.001-17.172-13.991-31.142-31.163-31.142z" clip-rule="evenodd" fill="#eaab3b" opacity="1" data-original="#000000" class=""></path></g></svg>