<svg xmlns="http://www.w3.org/2000/svg" xmlns:xlink="http://www.w3.org/1999/xlink" width="512" height="512" x="0" y="0" viewBox="0 0 33 33" style="enable-background:new 0 0 512 512" xml:space="preserve" class=""><g><g fill="#EAAB3B"><path d="m20.165 13.748-.438-.001v4.636h8.248l-.242-.601c-1.112-2.762-4.702-4.028-7.568-4.034zm.437 3.761v-2.874c1.98.109 4.806.925 6.016 2.874zM4.313 10.946h.828c.333 0 .604-.305.604-.681 0-.374-.271-.679-.604-.679h-.828c-.332 0-.604.305-.604.679 0 .377.271.681.604.681zm0-.874h.828c.049 0 .118.075.118.193 0 .11-.063.195-.118.195h-.828c-.055 0-.117-.083-.117-.195-.001-.108.062-.193.117-.193zM8.059 10.266c0-.374-.271-.679-.604-.679h-.828c-.333 0-.604.305-.604.679 0 .376.271.681.604.681h.828c.332-.001.604-.305.604-.681zm-.487 0c0 .112-.063.195-.117.195h-.828c-.055 0-.118-.085-.118-.195 0-.118.069-.193.118-.193h.828c.055-.001.117.084.117.193z" fill="#EAAB3B" opacity="1" data-original="#575756" class=""></path><path d="M29.939 17.313c-.283-.515-1.138-1.935-2.566-3.136-.936-.787-2.233-1.404-3.652-1.737-4.234-.992-9.36-.344-11.49.408-.29.103-.8.477-1.391.971a1.51 1.51 0 0 0-1.119-.512H9.68v-.743a.836.836 0 0 0-.335-.693.779.779 0 0 0-.438-.135 7.77 7.77 0 0 0 .301-2.187c0-.127-.006-.384-.019-.635h.301c.521 0 .91-.554.91-1.048 0-.499-.389-1.058-.91-1.058h-.455c-.088-.34-.234-.889-.39-1.378-.219-.679-.7-1.157-1.287-1.278-.301-.064-.859-.07-1.475.446-.614-.516-1.173-.51-1.474-.446-.587.121-1.067.599-1.286 1.278a26.865 26.865 0 0 0-.391 1.38h-.455c-.521 0-.91.559-.91 1.058 0 .494.389 1.048.91 1.048h.302c-.013.25-.018.507-.018.634 0 .591.062 1.391.301 2.187a.776.776 0 0 0-.438.135.836.836 0 0 0-.335.693v.743h-.042C1.193 13.308.5 14 .5 14.852v3.372c0 .753.561 1.445 1.313 1.644a2.673 2.673 0 0 0-.222 1.089v3.218a1.98 1.98 0 0 0 1.978 1.978H4.96c.402 1.563 1.812 2.727 3.497 2.727 1.688 0 3.099-1.164 3.502-2.727h9.786c.402 1.563 1.812 2.727 3.499 2.727s3.098-1.164 3.5-2.727h1.547a2.21 2.21 0 0 0 2.209-2.209v-3.938c0-1.13-1.064-2.236-2.561-2.693zM2.332 8.053a.298.298 0 0 1-.092-.186c0-.063.059-.172.037-.184h1.141l.081-.335c.003-.008.222-.916.456-1.652.121-.375.356-.632.631-.688.293-.062.643.115.978.497l.32.367.32-.367c.335-.382.685-.559.978-.497.274.057.51.313.631.688.234.736.453 1.644.456 1.653l.081.335h1.14c-.021.011.037.121.037.183a.298.298 0 0 1-.092.186l-.921-.007-2.63-.002-2.63.002zm3.552 2.927h-2.31a7.2 7.2 0 0 1-.139-1.426h4.896c0 .501-.049.982-.139 1.426zm2.186.487a4.67 4.67 0 0 1-.197.539l-1.341.458c-.172.056-.409.084-.648.084s-.477-.028-.648-.084l-1.341-.458a4.491 4.491 0 0 1-.197-.539h2.187zM3.447 9.069c.002-.071.006-.137.01-.203h4.854c.004.066.008.132.01.203H5.884zm-2.073 9.155v-3.372c0-.369.302-.67.673-.67h.914v-1.029l-.046-.554.323.106 1.72.588c.261.084.593.127.926.128.333-.001.665-.044.926-.128l1.72-.588.323-.106-.046.554v1.029h.914c.185 0 .353.074.474.195-1.204 1.067-2.535 2.382-3.061 2.906-1.983.325-3.846.798-4.825 1.835-.699-.131-.935-.656-.935-.894zm7.083 9.683a2.655 2.655 0 0 1 0-5.308 2.658 2.658 0 0 1 2.656 2.654 2.657 2.657 0 0 1-2.656 2.654zm16.787 0a2.657 2.657 0 0 1-2.654-2.654 2.658 2.658 0 0 1 2.654-2.654 2.657 2.657 0 0 1 2.654 2.654 2.656 2.656 0 0 1-2.654 2.654zm6.285-3.965a1.24 1.24 0 0 1-1.238 1.238h-1.428c-.04-1.965-1.645-3.553-3.619-3.553s-3.578 1.588-3.618 3.553h-9.548a3.628 3.628 0 0 0-3.621-3.553 3.625 3.625 0 0 0-3.616 3.553H3.569a1.007 1.007 0 0 1-1.007-1.007v-3.218c0-1.393 1.414-2.186 4.88-2.739l.156-.024.112-.112c1.972-1.978 4.322-4.133 4.843-4.315 2.102-.741 7.076-1.285 10.947-.379 1.254.295 2.438.854 3.249 1.535 1.581 1.329 2.415 3.002 2.423 3.018l.099.201.217.056c1.163.298 2.042 1.077 2.042 1.81v3.936z" fill="#EAAB3B" opacity="1" data-original="#575756" class=""></path><path d="m12.797 14.706-3.93 3.677h10.032V13.72h-.437c-2.794 0-4.96.374-5.665.986zm5.228 2.803H11.08l2.302-2.154c.335-.291 1.84-.717 4.644-.757v2.911z" fill="#EAAB3B" opacity="1" data-original="#575756" class=""></path></g></g></svg>